<?xml version="1.0" encoding="UTF-8"?>
<svg width="142.42mm" height="142.42mm" version="1.1" viewBox="0 0 142.42 142.42" xmlns="http://www.w3.org/2000/svg" xmlns:xlink="http://www.w3.org/1999/xlink">
 <g transform="translate(-2.9609 .48831)">
  <g transform="matrix(.75595 0 0 .75595 .31254 13.384)" fill="#3fda00" stroke="#000" stroke-width="2.165">
   <path d="m21.795 111.78s-3.9268-2.7116 14.311-2.8061c18.237-0.0945 17.912 1.4832 17.912 2.3337 0 0.85045 7.3942 0.42523 7.3942 0.42523l65.532-0.35436s-2.725-2.2226 15.85-1.9554 16.303 1.3364 16.303 1.3364 12.695-0.80181 13.497-3.0736c0.8018-2.2718 2.6727-10.023 0.93544-12.428-1.7372-2.4054-1.9142-9.5581-1.9142-9.5581s0.0472-1.134-0.66146-2.0316c-0.57071-0.72289-1.1462-1.2778-1.1855-3.2098-0.01-0.46719 0.168-1.9491 0.2048-2.4551"/>
   <path d="m169.97 78.005s-5.0196-2.1781-7.7836-3.9971-13.229-7.7249-13.229-7.7249-0.0709-0.92132 2.2915-1.1103c2.3624-0.18899-6.024-1.7954-6.024-1.7954s-7.0634-1.5828-10.276-2.0552c-3.2128-0.47247-21.558-2.3443-29.71-2.3443-8.1517 0-19.511 0.06681-24.121 0.93544-4.6104 0.86862-18.375 8.2854-18.375 8.2854l-10.624 6.4813s-18.575 1.6036-24.054 2.4722c-5.479 0.86862-14.833 2.4054-18.174 5.6127-3.3409 3.2072-3.8754 5.0781-3.8754 6.6149s-0.4009 11.893-0.4009 11.893-1.47 2.0045 2.205 5.0781 5.5458 4.6605 8.3689 5.0447c2.823 0.38421 5.6038 0.38584 5.6038 0.38584l23.787-0.4009"/>
  </g>
  <g transform="matrix(.75595 0 0 .75595 .31254 13.384)" fill-rule="evenodd" stroke-width=".73412">
   <ellipse cx="143.12" cy="106.2" rx="16.029" ry="16.575"/>
   <ellipse cx="38.142" cy="107.06" rx="16.029" ry="16.575"/>
  </g>
  <g transform="matrix(.75595 0 0 .75595 .31254 13.384)" fill="#a9a9a9" fill-rule="evenodd" stroke-width=".52065">
   <ellipse cx="38.142" cy="107.25" rx="13.415" ry="14.005"/>
   <ellipse cx="143.31" cy="106.4" rx="13.415" ry="14.005"/>
  </g>
  <g transform="matrix(.75595 0 0 .75595 .31254 13.384)" fill="#a9fff5" stroke="#000">
   <path d="m98.961 64.924-4.9445 15.635s-33.542 1.2027-34.478-0.4009c-0.93544-1.6036 11.626-14.299 20.446-15.234 8.8199-0.93544 18.976 0 18.976 0z" stroke-width=".865"/>
   <path d="m103.91 65.207c-1.7372 8.9684-2.94 15.083-2.94 15.083l37.952 0.13589s-0.26726-12.094-9.889-13.86c-9.6217-1.7665-25.123-1.3588-25.123-1.3588z" stroke-width=".867"/>
   <path d="m98.961 64.924-4.9445 15.635s-33.542 1.2027-34.478-0.4009c-0.93544-1.6036 11.626-14.299 20.446-15.234 8.8199-0.93544 18.976 0 18.976 0z" stroke-width=".865"/>
  </g>
  <g transform="translate(-16.525 22.067)" fill="#808080" opacity=".999" stroke="#000" stroke-linecap="round" stroke-linejoin="round">
   <rect x="120.76" y="68.424" width="40.443" height="16.631" rx="2.6353" ry="4.7939" stroke-width="1.4"/>
   <rect transform="matrix(.85264 -.52249 .3376 .94129 0 0)" x="105.95" y="90.181" width="12.743" height="48.356" rx="2.1409" ry="4.6113" stroke-width="1.415"/>
   <rect transform="matrix(.41805 .90843 -.97163 .23653 0 0)" x="54.309" y="-110.52" width="11.513" height="47.432" rx="1.9343" ry="4.5232" stroke-width="1.4131"/>
   <rect transform="matrix(.95476 .29739 -.21027 .97764 0 0)" x="89.724" y="7.9072" width="10.697" height="20.643" rx="2.2205" ry="4.7471" stroke-width="1.4028"/>
   <rect transform="rotate(16.101)" x="95.876" y="26.355" width="2.6727" height="12.562" rx="2.6353" ry="4.7939" stroke-width="1.4"/>
  </g>
  <g stroke-width="0">
   <g transform="translate(-16.525 22.067)" fill="#808080">
    <rect x="120.76" y="68.424" width="40.443" height="16.631" rx="2.6353" ry="4.7939"/>
    <rect transform="matrix(.85264 -.52249 .3376 .94129 0 0)" x="105.95" y="90.181" width="12.743" height="48.356" rx="2.1409" ry="4.6113"/>
    <rect transform="matrix(.41805 .90843 -.97163 .23653 0 0)" x="54.309" y="-110.52" width="11.513" height="47.432" rx="1.9343" ry="4.5232"/>
    <rect transform="matrix(.95476 .29739 -.21027 .97764 0 0)" x="89.724" y="7.9072" width="10.697" height="20.643" rx="2.2205" ry="4.7471"/>
    <rect transform="rotate(16.101)" x="95.876" y="26.355" width="2.6727" height="12.562" rx="2.6353" ry="4.7939"/>
   </g>
   <path d="m70.122 85.954a3.8754 2.0713 0 0 1-3.875 2.0713 3.8754 2.0713 0 0 1-3.8758-2.0709 3.8754 2.0713 0 0 1 3.8743-2.0717 3.8754 2.0713 0 0 1 3.8765 2.0705l-3.8754 7.96e-4z" fill="#ff0"/>
   <path d="m68.514 85.954a2.2679 1.5119 0 0 1-2.2676 1.5119 2.2679 1.5119 0 0 1-2.2681-1.5116 2.2679 1.5119 0 0 1 2.2672-1.5122 2.2679 1.5119 0 0 1 2.2685 1.5113l-2.2679 5.81e-4z" fill="#fff"/>
  </g>
  <path d="m31.531 66.664c-0.18561-0.09494-0.26605-0.196-0.37435-0.47029-0.0447-0.11321-0.3693-1.0593-0.72134-2.1025-0.74761-2.2154-0.80139-2.3649-0.92221-2.5646-0.15573-0.25736-0.18286-0.26836-1.2968-0.52579-1.5852-0.36634-1.8805-0.40587-2.13-0.28514-0.09924 0.04802-0.60988 0.54199-1.9575 1.8936-1.6532 1.6581-1.8355 1.8319-1.9544 1.8639-0.17147 0.04618-0.28617 0.02497-0.55471-0.10256-0.35645-0.16928-2.458-1.3484-3.2922-1.8472-0.43019-0.25722-0.45284-0.27551-0.52567-0.42436-0.06417-0.13116-0.073-0.17899-0.05631-0.30484 0.02127-0.16028 0.31322-1.347 0.7624-3.099 0.45056-1.7574 0.49204-1.9905 0.39492-2.2201-0.06085-0.14387-0.4458-0.5688-1.2978-1.4326-0.47902-0.48563-0.77404-0.76215-0.85494-0.80131-0.25579-0.12383-0.48525-0.08766-2.9132 0.45922-2.454 0.55273-2.5073 0.56147-2.7399 0.44891-0.11242-0.05443-0.14917-0.1013-0.32847-0.41904-0.31612-0.56017-1.1092-2.0763-1.5207-2.9071-0.40083-0.80929-0.44187-0.94036-0.3662-1.1696 0.038476-0.11656 0.49655-0.56544 2.1028-2.0606 0.90978-0.84684 1.7454-1.6707 1.799-1.7737 0.06485-0.12465 0.08099-0.37088 0.04121-0.62862-0.07957-0.51554-0.30506-1.7481-0.37124-2.0292-0.07952-0.33783-0.14507-0.48465-0.26886-0.60218-0.089277-0.08475-0.63336-0.30136-2.2587-0.89926-0.4852-0.17848-1.3158-0.48403-1.8459-0.67901-0.53002-0.19497-0.98929-0.3682-1.0206-0.38495-0.085693-0.04586-0.096592-0.17651-0.061572-0.73788 0.10278-1.6471 0.40356-4.001 0.55091-4.3115 0.11895-0.25067 0.19479-0.27 3.1417-0.80063 1.7295-0.31142 2.2927-0.42874 2.4119-0.50243 0.19943-0.12325 0.3468-0.39225 0.76617-1.3984 0.45694-1.0964 0.48111-1.1928 0.36386-1.4512-0.08132-0.17926-0.30732-0.49118-1.6315-2.2519-0.6325-0.84101-1.2252-1.6415-1.317-1.7788-0.14967-0.22372-0.16704-0.26558-0.16704-0.40255 0-0.1468 0.01065-0.16721 0.26981-0.51486 0.5399-0.72439 1.8614-2.3706 2.5146-3.1324 0.38756-0.45201 0.44632-0.48564 0.737-0.4217 0.20264 0.04457 0.8937 0.31429 2.301 0.89806 2.2133 0.91812 2.5522 1.0443 2.8056 1.0443 0.18828 0 0.27476-0.04308 0.83119-0.41407 0.93658-0.62444 1.1044-0.76339 1.2582-1.0415l0.09752-0.17644-0.06964-0.88218c-0.03831-0.4852-0.12284-1.5467-0.18786-2.3588-0.06501-0.81217-0.11791-1.5863-0.11756-1.7202 7.12e-4 -0.26876 0.05411-0.42812 0.18334-0.54704 0.09206-0.08472 0.65191-0.28724 2.4037-0.86953 1.6681-0.55446 2.3133-0.75319 2.444-0.75282 0.11567 3.33e-4 0.37223 0.11324 0.44093 0.19404 0.02602 0.0306 0.41528 0.58494 0.86503 1.2319 2.2625 3.2544 2.0852 3.0177 2.3664 3.1602l0.16173 0.08198 0.84955-0.03935c0.98612-0.04567 1.0751-0.05618 1.2023-0.14191 0.12645-0.08521 0.16361-0.14944 1.2253-2.1177 0.79901-1.4813 1.1698-2.1587 1.3693-2.5018 0.06933-0.11921 0.23497-0.24373 0.37401-0.28117 0.13175-0.03547 0.29002-3e-3 2.2428 0.46106 2.1468 0.5101 2.7371 0.66614 2.8888 0.76375 0.10569 0.068 0.18503 0.26091 0.21434 0.52114 0.01492 0.13243 0.06072 1.2134 0.1018 2.4021 0.04107 1.1887 0.08695 2.2761 0.10195 2.4164 0.04965 0.46443 0.17374 0.59931 0.94622 1.0284 0.69549 0.38635 0.84311 0.44583 1.0705 0.43135 0.1666-0.01065 0.23827-0.04319 0.98615-0.4483 0.44357-0.24028 1.4738-0.80717 2.2895-1.2598l1.483-0.8229 0.20276 0.01885c0.11152 0.01038 0.2394 0.03779 0.28418 0.06094 0.07781 0.04024 2.0371 2.0207 3.0704 3.1035 0.50821 0.53259 0.54832 0.59333 0.54868 0.83077 2.93e-4 0.143-0.17466 0.47898-0.79201 1.5217-0.76292 1.2886-1.5862 2.6996-1.7269 2.9597-0.21362 0.39493-0.19359 0.51849 0.20923 1.2902 0.28647 0.54884 0.47084 0.84851 0.59808 0.97208 0.17652 0.17144 0.37738 0.20586 1.697 0.29084 0.37199 0.02396 1.0998 0.07067 1.6173 0.1038 1.2958 0.08298 2.0641 0.14497 2.2158 0.17878 0.14744 0.03288 0.31372 0.14944 0.37037 0.25964 0.06486 0.12618 0.70572 2.9449 1.0152 4.4651 0.10148 0.49852 0.09707 0.56368-0.05306 0.78406-0.07015 0.10297-0.19104 0.17203-1.1517 0.65788-2.2546 1.1403-3.3133 1.685-3.4552 1.7778-0.08087 0.05287-0.18857 0.15816-0.23934 0.23399-0.11547 0.17244-0.14054 0.34601-0.20194 1.3978l-0.04504 0.77164 0.08573 0.16983c0.13692 0.27123 0.13828 0.27233 2.4485 1.9773 0.36158 0.26686 0.92716 0.68934 1.2568 0.93883 0.85002 0.64327 0.88691 0.71397 0.68552 1.314-0.27188 0.81005-1.538 4.1894-1.5976 4.2641-0.01445 0.01811-0.10879 0.07306-0.20964 0.12212l-0.18336 0.08919-1.8526-0.20008c-1.0189-0.11004-2.1569-0.22992-2.5289-0.2664-1.0014-0.09818-0.99885-0.09932-1.6329 0.75156-0.68495 0.91919-0.91293 1.276-0.95164 1.4895-0.03055 0.16854-0.0392 0.14392 1.2992 3.7006 0.44879 1.1926 0.50607 1.3695 0.50607 1.5626 0 0.29277-0.02665 0.32201-0.91158 1.0002-0.96187 0.73717-2.5429 1.9254-2.7284 2.0505-0.24361 0.16431-0.44819 0.21028-0.62775 0.14104-0.0802-0.03092-0.62572-0.44849-1.4518-1.1113-1.9415-1.5577-2.5462-2.0332-2.6601-2.0914-0.24714-0.12623-0.54346-0.05455-1.853 0.44824-0.99471 0.38191-1.1999 0.49217-1.3072 0.70243-0.06533 0.12801-0.23754 0.88226-0.7493 3.2818-0.35126 1.647-0.4073 1.8776-0.48381 1.9912-0.14438 0.21435-0.36508 0.26978-1.5478 0.38877-1.0198 0.10259-1.8803 0.16246-2.6151 0.18192l-0.6343 0.0168zm2.4195-10.453c1.778-0.25444 3.1854-0.68781 4.7197-1.4533 2.1501-1.0728 4.036-2.6944 5.4292-4.6686 1.1734-1.6626 2.0008-3.5806 2.3892-5.5382 0.20002-1.0081 0.26724-1.7212 0.26749-2.8377 3.23e-4 -1.4783-0.12608-2.5256-0.45782-3.7934-1.173-4.4827-4.4848-8.2131-8.8043-9.9172-1.2845-0.50674-2.8284-0.86958-4.1007-0.96371-0.66685-0.04933-2.3432-0.04055-2.8097 0.01472-2.7728 0.32858-5.1671 1.2736-7.3116 2.8859-2.1285 1.6002-3.809 3.7979-4.8095 6.2894-0.48586 1.21-0.79726 2.4752-0.95534 3.8816-0.06566 0.58412-0.07505 2.4158-0.01515 2.9553 0.33975 3.0601 1.4118 5.631 3.3129 7.9445 0.38787 0.47202 1.401 1.4916 1.8686 1.8804 2.1341 1.7747 4.5537 2.8538 7.3809 3.2917 0.55337 0.08572 1.1971 0.11279 2.4113 0.1014 0.8741-0.0082 1.1157-0.02006 1.485-0.07291z" stroke-width=".029406"/>
 </g>
</svg>
